<?xml version="1.0" encoding="utf-8"?>
<!-- Generator: Adobe Illustrator 23.0.3, SVG Export Plug-In . SVG Version: 6.00 Build 0)  -->
<svg version="1.1" xmlns="http://www.w3.org/2000/svg" xmlns:xlink="http://www.w3.org/1999/xlink" x="0px" y="0px"
	 viewBox="0 0 1002.7 700.1" style="enable-background:new 0 0 1002.7 700.1;" xml:space="preserve">
<style type="text/css">
	.st0{fill:#3F3D56;}
	.st1{fill:#A0616A;}
	.st2{fill:#2F2E41;}
	.st3{fill:#D0CDE1;}
</style>
<g id="e964fae6-99d5-4ba3-9654-9b5776c78265">
	<title>design_data</title>
	<rect x="-42" y="673.3" class="st0" width="1029.7" height="2.4"/>
	<path class="st1" d="M832.3,232.5l-8.2,41.1c0,0-10.6,23.5-5.9,39.9l3.5,7l22.3-20l8.2-55.2L832.3,232.5z"/>
	<polygon class="st1" points="786.5,613.1 773.6,662.5 788.9,669.5 803,657.8 811.2,620.2 	"/>
	<polygon class="st1" points="959.8,593.8 966.3,664.8 999.2,664.8 983.3,586.7 	"/>
	<path class="st2" d="M908.7,332.4l6.7-32.5l-77.1-18l-16.4,25.8c0,0-28.2,44.6-35.2,180.9s-9.4,135.1-9.4,135.1l57.6,5.9
		l29.4-190.3l72.8,173.9l55.2-15.3l-69.3-209.1C922.8,388.7,927.5,358.2,908.7,332.4z"/>
	<path class="st2" d="M790.1,651.9l-8.2,8.2l-4.7-4.7l2.6-17.3l-13.1,7.9c0,0-23.5-3.5-21.1,21.1c0,0-3.5,8.2,16.4,17.6
		s30.5,15.3,30.5,15.3s18.8-1.2,18.8-7s-5.9-45.8-5.9-45.8L790.1,651.9z"/>
	<path class="st2" d="M981.6,651.9l-8.2,8.2l-4.7-4.7l-4.9-17.3l-5.6,7.9c0,0-23.5-3.5-21.1,21.1c0,0-3.5,8.2,16.4,17.6
		s30.5,15.3,30.5,15.3s18.8-1.2,18.8-7s-5.9-45.8-5.9-45.8L981.6,651.9z"/>
	<circle class="st1" cx="888.7" cy="130.3" r="34.1"/>
	<polygon class="st1" points="878.2,156.1 880.5,196.1 925.2,196.1 912.2,142 	"/>
	<path class="st3" d="M852.3,179.6l36.4-2.3l38.8,2.3c0,0,32.9,17.6,15.3,65.8s-30.5,63.4-30.5,63.4l-37.6-16.4h-11.7
		c0,0-3.5-3.5-4.7-3.5s-23.5,3.5-23.5,3.5s-5.9-24.7,2.3-27s12.9-15.3,12.9-15.3L852.3,179.6z"/>
	<polygon class="st3" points="859.4,183.2 852.3,179.6 827.7,237.2 854.7,254.8 	"/>
	<path class="st2" d="M840,127.4c0,0-16.4-42.3,16.1-46.3c0,0,41-25.2,67.3,17l20.8,51.3l-6.9-1.4l-0.9,6.9l-8.9,5.4l-6.7-6.9
		l1.1,10.5l-76.4,32.4c0,0,28.8-31.9,17.7-69.5l-4.5,9.2L840,127.4z"/>
</g>
<g id="Layer_2">
</g>
</svg>
